<svg width="126" height="29" viewBox="0 0 126 29" fill="none" xmlns="http://www.w3.org/2000/svg">
<path d="M29.664 13.928H38.04L37.512 16.568H29.136L29.664 13.928ZM28.104 23H24.984L28.344 6.2H40.608L40.08 8.816H30.936L28.104 23ZM40.2653 23L43.6253 6.2H46.7453L43.3853 23H40.2653ZM51.3373 23L54.1693 8.84H48.6013L49.1293 6.2H63.3613L62.8333 8.84H57.2653L54.4573 23H51.3373ZM67.0468 13.928H75.4228L74.8948 16.568H66.5188L67.0468 13.928ZM65.4868 23H62.3668L65.7268 6.2H77.9908L77.4628 8.816H68.3188L65.4868 23ZM77.6481 23L81.0081 6.2H84.1281L81.2961 20.36H90.0801L89.5521 23H77.6481ZM96.8393 13.184H105.215L104.711 15.752H96.3353L96.8393 13.184ZM95.6393 20.384H105.143L104.615 23H92.0153L95.3753 6.2H107.639L107.111 8.816H97.9433L95.6393 20.384ZM105.866 23L114.722 13.472L114.506 15.248L109.586 6.2H112.898L116.594 13.088L115.202 13.016L121.49 6.2H125.042L116.714 15.224L116.786 13.448L122.018 23H118.682L114.77 15.68L116.186 15.752L109.61 23H105.866Z" fill="black"/>
<path fill-rule="evenodd" clip-rule="evenodd" d="M21.6224 11.5808C21.1183 12.0843 20.3019 12.0843 19.7985 11.5808L13.4136 5.20014C12.9102 4.69669 12.9102 3.88103 13.4136 3.37758C13.9171 2.87414 14.7341 2.87414 15.2376 3.37758L17.0587 5.19666L18.4265 3.82957C18.6678 3.58758 19.0961 3.58758 19.3381 3.82957L21.1704 5.66047C21.2914 5.78147 21.3596 5.94488 21.3596 6.11594C21.3596 6.287 21.2914 6.4511 21.1704 6.5714L19.8019 7.93849L21.6224 9.75826C22.1259 10.2617 22.1259 11.0774 21.6224 11.5808ZM19.7985 15.2273C19.2943 15.7308 18.478 15.7308 17.9738 15.2273L9.76503 7.02339C9.26158 6.51994 9.26158 5.70358 9.76503 5.20014C10.2692 4.69669 11.0855 4.69669 11.5897 5.20014L19.7985 13.4041C20.3019 13.9075 20.3019 14.7239 19.7985 15.2273ZM14.3259 13.4041L10.4103 17.3308L7.67406 14.5959L11.5897 10.6692L14.3259 13.4041ZM12.2343 22.7999C11.7308 23.3033 10.9138 23.3033 10.4103 22.7999L2.20153 14.5959C1.69808 14.0925 1.69808 13.2761 2.20153 12.7727C2.70567 12.2692 3.52203 12.2692 4.02617 12.7727L12.2343 20.9766C12.7384 21.4801 12.7384 22.2964 12.2343 22.7999ZM8.58638 22.7999C9.08983 23.3033 9.08983 24.119 8.58638 24.6224C8.08224 25.1259 7.26588 25.1259 6.76174 24.6224L4.94197 22.8033L3.57627 24.1676C3.45041 24.2935 3.28561 24.3568 3.1208 24.3568C2.95531 24.3568 2.7905 24.2935 2.66464 24.1676L0.832353 22.3374C0.71136 22.2164 0.643214 22.053 0.643214 21.8813C0.643214 21.7102 0.71136 21.5468 0.832353 21.4258L2.19805 20.0615L0.377584 18.2417C-0.125861 17.7383 -0.125861 16.9226 0.377584 16.4192C0.881029 15.9157 1.69808 15.9157 2.20153 16.4192L8.58638 22.7999Z" fill="black"/>
</svg>
