<?xml version="1.0" standalone="no"?>
<!DOCTYPE svg PUBLIC "-//W3C//DTD SVG 20010904//EN"
 "http://www.w3.org/TR/2001/REC-SVG-20010904/DTD/svg10.dtd">
<svg version="1.0" xmlns="http://www.w3.org/2000/svg"
 width="700.000000pt" height="700.000000pt" viewBox="0 0 700.000000 700.000000"
 preserveAspectRatio="xMidYMid meet">
<metadata>
Created by potrace 1.14, written by Peter Selinger 2001-2017
</metadata>
<g transform="translate(0.000000,700.000000) scale(0.100000,-0.100000)"
fill="#000000" stroke="none">
<path d="M4440 6981 c-82 -27 -116 -48 -171 -103 -123 -123 -154 -305 -79
-463 31 -67 82 -119 1094 -1131 1006 -1005 1066 -1062 1132 -1094 58 -28 82
-34 151 -36 127 -5 224 31 307 113 81 81 116 160 121 278 5 100 -23 191 -80
260 -21 26 -168 177 -327 335 l-288 288 221 218 c121 121 232 239 246 263 36
59 37 141 3 195 -38 62 -637 654 -678 672 -53 22 -124 20 -174 -5 -28 -13
-124 -101 -267 -245 l-224 -225 -291 291 c-160 160 -309 305 -331 323 -96 76
-249 104 -365 66z"/>
<path d="M3280 6401 c-30 -10 -69 -25 -86 -34 -56 -29 -134 -116 -167 -185
-30 -62 -32 -75 -32 -172 0 -98 2 -110 33 -175 32 -67 87 -124 1385 -1420
1055 -1054 1363 -1356 1403 -1376 200 -102 440 -33 549 159 38 67 54 139 51
222 -3 81 -23 140 -68 208 -36 53 -2668 2684 -2723 2721 -66 45 -124 63 -210
67 -56 2 -96 -3 -135 -15z"/>
<path d="M3071 3941 c-338 -339 -616 -622 -618 -627 -2 -6 191 -205 429 -442
l432 -432 618 621 c340 342 618 625 618 629 0 5 -843 852 -863 867 -1 1 -279
-276 -616 -616z"/>
<path d="M881 3994 c-262 -71 -380 -381 -235 -614 28 -45 2675 -2693 2729
-2729 59 -40 118 -61 194 -67 170 -15 331 79 405 235 29 61 31 74 31 171 0 98
-2 110 -33 175 -32 67 -89 126 -1365 1402 -733 733 -1354 1348 -1382 1368 -98
68 -229 91 -344 59z"/>
<path d="M284 2828 c-179 -61 -287 -216 -279 -403 3 -86 19 -140 58 -202 13
-21 160 -174 326 -340 165 -166 301 -306 301 -311 0 -5 -101 -110 -223 -233
-123 -123 -232 -240 -242 -259 -22 -42 -23 -120 -2 -170 19 -43 630 -657 682
-684 46 -24 130 -24 176 -1 19 9 134 117 256 239 123 121 228 223 233 224 6 2
140 -125 298 -283 158 -158 305 -302 327 -320 133 -105 335 -110 479 -11 59
40 115 109 147 181 19 41 23 68 23 155 2 192 95 84 -1123 1300 -638 638 -1074
1066 -1101 1082 -102 59 -227 73 -336 36z"/>
</g>
</svg>
