<svg xmlns="http://www.w3.org/2000/svg" width="126" height="29" fill="none"><path fill="#fff" d="M29.664 13.928h8.376l-.528 2.64h-8.376l.528-2.64ZM28.104 23h-3.12l3.36-16.8h12.264l-.528 2.616h-9.144L28.104 23Zm12.161 0 3.36-16.8h3.12L43.385 23h-3.12Zm11.072 0L54.17 8.84h-5.568l.528-2.64h14.232l-.528 2.64h-5.568L54.457 23h-3.12Zm15.71-9.072h8.376l-.528 2.64h-8.376l.528-2.64ZM65.487 23h-3.12l3.36-16.8H77.99l-.528 2.616h-9.144L65.487 23Zm12.161 0 3.36-16.8h3.12l-2.832 14.16h8.784L89.552 23H77.648Zm19.191-9.816h8.376l-.504 2.568h-8.376l.504-2.568Zm-1.2 7.2h9.504L104.615 23h-12.6l3.36-16.8h12.264l-.528 2.616h-9.168L95.64 20.384ZM105.866 23l8.856-9.528-.216 1.776-4.92-9.048h3.312l3.696 6.888-1.392-.072L121.49 6.2h3.552l-8.328 9.024.072-1.776L122.018 23h-3.336l-3.912-7.32 1.416.072L109.61 23h-3.744Z"/><path fill="#fff" d="M29.664 13.928v-.5a.5.5 0 0 0-.49.402l.49.098Zm8.376 0 .49.098a.5.5 0 0 0-.49-.598v.5Zm-.528 2.64v.5a.5.5 0 0 0 .49-.402l-.49-.098Zm-8.376 0-.49-.098a.5.5 0 0 0 .49.598v-.5ZM28.104 23v.5a.5.5 0 0 0 .49-.402l-.49-.098Zm-3.12 0-.49-.098a.5.5 0 0 0 .49.598V23Zm3.36-16.8v-.5a.5.5 0 0 0-.49.402l.49.098Zm12.264 0 .49.099a.5.5 0 0 0-.49-.599v.5Zm-.528 2.616v.5a.5.5 0 0 0 .49-.401l-.49-.099Zm-9.144 0v-.5a.5.5 0 0 0-.49.402l.49.098Zm-1.272 5.612h8.376v-1h-8.376v1Zm7.886-.598-.528 2.64.98.196.528-2.64-.98-.196Zm-.038 2.238h-8.376v1h8.376v-1Zm-7.886.598.528-2.64-.98-.196-.528 2.64.98.196ZM28.104 22.5h-3.12v1h3.12v-1Zm-2.63.598 3.36-16.8-.98-.196-3.36 16.8.98.196ZM28.344 6.7h12.264v-1H28.344v1Zm11.774-.599-.528 2.616.98.198.528-2.616-.98-.198Zm-.038 2.215h-9.144v1h9.144v-1Zm-9.634.402-2.832 14.184.98.196 2.832-14.184-.98-.196ZM40.266 23l-.491-.098a.5.5 0 0 0 .49.598V23Zm3.36-16.8v-.5a.5.5 0 0 0-.491.402l.49.098Zm3.12 0 .49.098a.5.5 0 0 0-.49-.598v.5ZM43.385 23v.5a.5.5 0 0 0 .49-.402l-.49-.098Zm-2.63.098 3.36-16.8-.981-.196-3.36 16.8.98.196ZM43.625 6.7h3.12v-1h-3.12v1Zm2.629-.598-3.36 16.8.98.196 3.36-16.8-.98-.196ZM43.385 22.5h-3.12v1h3.12v-1Zm7.952.5-.49-.098a.5.5 0 0 0 .49.598V23ZM54.17 8.84l.49.098a.5.5 0 0 0-.49-.598v.5Zm-5.568 0-.49-.098a.5.5 0 0 0 .49.598v-.5Zm.528-2.64v-.5a.5.5 0 0 0-.49.402l.49.098Zm14.232 0 .49.098a.5.5 0 0 0-.49-.598v.5Zm-.528 2.64v.5a.5.5 0 0 0 .49-.402l-.49-.098Zm-5.568 0v-.5a.5.5 0 0 0-.49.403l.49.097ZM54.457 23v.5a.5.5 0 0 0 .49-.403l-.49-.097Zm-2.63.098 2.833-14.16-.981-.196-2.832 14.16.98.196ZM54.17 8.34h-5.568v1h5.568v-1Zm-5.077.598.528-2.64-.981-.196-.528 2.64.98.196Zm.037-2.238h14.232v-1H49.13v1Zm13.742-.598-.528 2.64.98.196.529-2.64-.981-.196Zm-.038 2.238h-5.568v1h5.568v-1Zm-6.058.403-2.808 14.16.98.194 2.809-14.16-.981-.194ZM54.457 22.5h-3.12v1h3.12v-1Zm12.59-8.572v-.5a.5.5 0 0 0-.49.402l.49.098Zm8.376 0 .49.098a.5.5 0 0 0-.49-.598v.5Zm-.528 2.64v.5a.5.5 0 0 0 .49-.402l-.49-.098Zm-8.376 0-.49-.098a.5.5 0 0 0 .49.598v-.5ZM65.487 23v.5a.5.5 0 0 0 .49-.402l-.49-.098Zm-3.12 0-.49-.098a.5.5 0 0 0 .49.598V23Zm3.36-16.8v-.5a.5.5 0 0 0-.49.402l.49.098Zm12.264 0 .49.099a.5.5 0 0 0-.49-.599v.5Zm-.528 2.616v.5a.5.5 0 0 0 .49-.401l-.49-.099Zm-9.144 0v-.5a.5.5 0 0 0-.49.402l.49.098Zm-1.272 5.612h8.376v-1h-8.376v1Zm7.886-.598-.529 2.64.981.196.528-2.64-.98-.196Zm-.038 2.238h-8.376v1h8.376v-1Zm-7.886.598.528-2.64-.98-.196-.529 2.64.981.196ZM65.487 22.5h-3.12v1h3.12v-1Zm-2.63.598 3.36-16.8-.98-.196-3.36 16.8.98.196ZM65.727 6.7H77.99v-1H65.727v1ZM77.5 6.101l-.528 2.616.98.198.528-2.616-.98-.198Zm-.038 2.215h-9.144v1h9.144v-1Zm-9.634.402-2.832 14.184.98.196L68.81 8.914l-.98-.196ZM77.649 23l-.491-.098a.5.5 0 0 0 .49.598V23Zm3.36-16.8v-.5a.5.5 0 0 0-.491.402l.49.098Zm3.12 0 .49.098a.5.5 0 0 0-.49-.598v.5Zm-2.833 14.16-.49-.098a.5.5 0 0 0 .49.598v-.5Zm8.784 0 .49.098a.5.5 0 0 0-.49-.598v.5ZM89.552 23v.5a.5.5 0 0 0 .49-.402l-.49-.098Zm-11.414.098 3.36-16.8-.98-.196-3.36 16.8.98.196ZM81.008 6.7h3.12v-1h-3.12v1Zm2.63-.598-2.832 14.16.98.196 2.832-14.16-.98-.196ZM81.296 20.86h8.784v-1h-8.784v1Zm8.294-.598-.528 2.64.98.196.528-2.64-.98-.196Zm-.038 2.238H77.648v1h11.904v-1Zm7.287-9.316v-.5a.5.5 0 0 0-.49.404l.49.096Zm8.376 0 .491.096a.5.5 0 0 0-.491-.596v.5Zm-.504 2.568v.5a.5.5 0 0 0 .491-.404l-.491-.096Zm-8.376 0-.49-.096a.5.5 0 0 0 .49.596v-.5Zm-.696 4.632-.49-.098a.5.5 0 0 0 .49.598v-.5Zm9.504 0 .49.099a.499.499 0 0 0-.49-.599v.5ZM104.615 23v.5a.5.5 0 0 0 .49-.401l-.49-.099Zm-12.6 0-.49-.098a.5.5 0 0 0 .49.598V23Zm3.36-16.8v-.5a.5.5 0 0 0-.49.402l.49.098Zm12.264 0 .49.099a.499.499 0 0 0-.49-.599v.5Zm-.528 2.616v.5a.5.5 0 0 0 .49-.401l-.49-.099Zm-9.168 0v-.5a.5.5 0 0 0-.49.402l.49.098Zm-1.104 4.868h8.376v-1h-8.376v1Zm7.886-.596-.504 2.568.981.192.504-2.568-.981-.192Zm-.014 2.164h-8.376v1h8.376v-1Zm-7.885.596.504-2.568-.981-.192-.504 2.568.98.192Zm-1.187 5.036h9.504v-1h-9.504v1Zm9.014-.599-.528 2.616.98.198.528-2.616-.98-.198Zm-.038 2.215h-12.6v1h12.6v-1Zm-12.11.598 3.36-16.8-.98-.196-3.36 16.8.98.196ZM95.376 6.7h12.264v-1H95.375v1Zm11.774-.599-.528 2.616.98.198.528-2.616-.98-.198Zm-.038 2.215h-9.168v1h9.168v-1Zm-9.658.402-2.304 11.568.98.196 2.305-11.568-.981-.196ZM105.866 23l-.366-.34a.499.499 0 0 0 .366.84V23Zm8.856-9.528.496.06a.5.5 0 0 0-.862-.4l.366.34Zm-.216 1.776-.439.239a.5.5 0 0 0 .935-.179l-.496-.06Zm-4.92-9.048v-.5a.5.5 0 0 0-.439.739l.439-.239Zm3.312 0 .44-.236a.5.5 0 0 0-.44-.264v.5Zm3.696 6.888-.026.5a.5.5 0 0 0 .466-.736l-.44.236Zm-1.392-.072-.368-.339a.501.501 0 0 0 .342.838l.026-.499ZM121.49 6.2v-.5a.501.501 0 0 0-.368.161l.368.339Zm3.552 0 .367.34a.499.499 0 0 0-.367-.84v.5Zm-8.328 9.024-.5-.02a.501.501 0 0 0 .867.36l-.367-.34Zm.072-1.776.438-.24a.5.5 0 0 0-.938.22l.5.02ZM122.018 23v.5a.5.5 0 0 0 .438-.74l-.438.24Zm-3.336 0-.441.236a.5.5 0 0 0 .441.264V23Zm-3.912-7.32.025-.5a.499.499 0 0 0-.466.736l.441-.236Zm1.416.072.37.336a.5.5 0 0 0-.345-.835l-.025.499ZM109.61 23v.5a.5.5 0 0 0 .37-.164l-.37-.336Zm-3.378.34 8.856-9.528-.732-.68-8.856 9.528.732.68Zm7.994-9.928-.216 1.776.992.12.216-1.776-.992-.12Zm.719 1.597-4.92-9.048-.878.478 4.92 9.048.878-.478ZM109.586 6.7h3.312v-1h-3.312v1Zm2.871-.264 3.696 6.888.881-.472-3.696-6.888-.881.472Zm4.163 6.153-1.392-.072-.052.998 1.392.072.052-.998Zm-1.051.766 6.288-6.816-.735-.678-6.288 6.816.735.678ZM121.49 6.7h3.552v-1h-3.552v1Zm3.184-.84-8.328 9.025.735.678 8.328-9.024-.735-.678Zm-7.461 9.384.072-1.776-.999-.04-.072 1.776.999.04Zm-.866-1.556 5.232 9.552.877-.48-5.232-9.552-.877.48Zm5.671 8.812h-3.336v1h3.336v-1Zm-2.895.264-3.912-7.32-.882.472 3.912 7.32.882-.472Zm-4.379-6.585 1.416.072.051-.998-1.416-.072-.051.998Zm1.072-.763-6.576 7.248.74.672 6.576-7.248-.74-.672ZM109.61 22.5h-3.744v1h3.744v-1Z"/><path fill="#fff" fill-rule="evenodd" d="M21.622 11.58a1.29 1.29 0 0 1-1.823 0L13.414 5.2a1.289 1.289 0 1 1 1.824-1.822l1.82 1.819 1.369-1.367a.663.663 0 0 1 .911 0l1.832 1.83a.644.644 0 0 1 0 .911l-1.368 1.367 1.82 1.82c.504.504.504 1.32 0 1.823ZM19.8 15.228a1.29 1.29 0 0 1-1.825 0L9.765 7.023A1.29 1.29 0 1 1 11.59 5.2l8.209 8.204a1.29 1.29 0 0 1 0 1.823Zm-5.473-1.823-3.916 3.927-2.736-2.735 3.916-3.927 2.736 2.735ZM12.234 22.8a1.29 1.29 0 0 1-1.824 0l-8.208-8.204a1.29 1.29 0 1 1 1.824-1.823l8.208 8.204c.504.503.504 1.32 0 1.823Zm-3.648 0a1.288 1.288 0 1 1-1.824 1.822l-1.82-1.819-1.366 1.365a.642.642 0 0 1-.911 0l-1.833-1.83a.644.644 0 0 1 0-.912l1.366-1.364-1.82-1.82a1.288 1.288 0 1 1 1.824-1.823l6.384 6.38Z" clip-rule="evenodd"/></svg>